# MagicaVoxel @ ephtracy

# material
mtllib robot.mtl
usemtl palette

# normals
vn -1 0 0
vn 1 0 0
vn 0 0 1
vn 0 0 -1
vn 0 -1 0
vn 0 1 0

# texcoords
vt 0.775391 0.5
vt 0.955078 0.5
vt 0.958984 0.5
vt 0.962891 0.5
vt 0.982422 0.5
vt 0.990234 0.5
vt 0.994141 0.5

# verts
v -5.5 6 4.5
v -5.5 6 0.5
v -5.5 7 4.5
v -5.5 7 3.5
v -5.5 7 2.5
v -5.5 7 0.5
v -5.5 8 3.5
v -5.5 8 2.5
v -4.5 0 3.5
v -4.5 0 2.5
v -4.5 0 1.5
v -4.5 1 3.5
v -4.5 1 2.5
v -4.5 1 1.5
v -4.5 2 1.5
v -4.5 2 -0.5
v -4.5 5 1.5
v -4.5 5 -0.5
v -3.5 0 -0.5
v -3.5 0 -1.5
v -3.5 1 2.5
v -3.5 1 1.5
v -3.5 1 -0.5
v -3.5 1 -1.5
v -3.5 2 2.5
v -3.5 2 1.5
v -3.5 2 -0.5
v -3.5 2 -1.5
v -3.5 5 2.5
v -3.5 5 1.5
v -3.5 5 -0.5
v -3.5 5 -3.5
v -3.5 6 3.5
v -3.5 6 2.5
v -3.5 6 1.5
v -3.5 6 0.5
v -3.5 7 1.5
v -3.5 7 0.5
v -3.5 8 3.5
v -3.5 8 2.5
v -3.5 9 2.5
v -3.5 9 -3.5
v -2.5 5 4.5
v -2.5 5 2.5
v -2.5 6 3.5
v -2.5 6 2.5
v -2.5 8 4.5
v -2.5 8 3.5
v -2.5 8 2.5
v -2.5 9 3.5
v -2.5 9 2.5
v -2.5 9 0.5
v -2.5 9 -1.5
v -2.5 10 0.5
v -2.5 10 -1.5
v -1.5 7 -3.5
v -1.5 7 -4.5
v -1.5 8 4.5
v -1.5 8 3.5
v -1.5 9 4.5
v -1.5 9 3.5
v -1.5 9 2.5
v -1.5 9 0.5
v -1.5 9 -1.5
v -1.5 9 -2.5
v -1.5 9 -3.5
v -1.5 9 -4.5
v -1.5 10 2.5
v -1.5 10 0.5
v -1.5 10 -1.5
v -1.5 10 -2.5
v -1.5 10 -3.5
v 0.5 5 4.5
v 0.5 5 3.5
v 0.5 6 4.5
v 0.5 6 3.5
v 1.5 0 3.5
v 1.5 0 1.5
v 1.5 1 3.5
v 1.5 1 1.5
v 1.5 2 1.5
v 1.5 2 -0.5
v 1.5 5 1.5
v 1.5 5 -0.5
v 2.5 0 -0.5
v 2.5 0 -1.5
v 2.5 1 2.5
v 2.5 1 1.5
v 2.5 1 -0.5
v 2.5 1 -1.5
v 2.5 2 2.5
v 2.5 2 1.5
v 2.5 2 -0.5
v 2.5 2 -1.5
v 4.5 6 4.5
v 4.5 6 1.5
v 4.5 7 4.5
v 4.5 7 3.5
v 4.5 7 2.5
v 4.5 7 1.5
v 4.5 8 3.5
v 4.5 8 2.5
v -4.5 6 4.5
v -4.5 6 1.5
v -4.5 7 4.5
v -4.5 7 3.5
v -4.5 7 2.5
v -4.5 7 1.5
v -4.5 8 3.5
v -4.5 8 2.5
v -2.5 0 -0.5
v -2.5 0 -1.5
v -2.5 1 2.5
v -2.5 1 1.5
v -2.5 1 -0.5
v -2.5 1 -1.5
v -2.5 2 2.5
v -2.5 2 1.5
v -2.5 2 -0.5
v -2.5 2 -1.5
v -1.5 0 3.5
v -1.5 0 2.5
v -1.5 0 1.5
v -1.5 1 3.5
v -1.5 1 2.5
v -1.5 1 1.5
v -1.5 2 1.5
v -1.5 2 -0.5
v -1.5 5 1.5
v -1.5 5 -0.5
v -0.5 5 4.5
v -0.5 5 3.5
v -0.5 6 4.5
v -0.5 6 3.5
v 1.5 7 -3.5
v 1.5 7 -4.5
v 1.5 8 4.5
v 1.5 8 3.5
v 1.5 9 4.5
v 1.5 9 3.5
v 1.5 9 2.5
v 1.5 9 0.5
v 1.5 9 -1.5
v 1.5 9 -2.5
v 1.5 9 -3.5
v 1.5 9 -4.5
v 1.5 10 2.5
v 1.5 10 0.5
v 1.5 10 -1.5
v 1.5 10 -2.5
v 1.5 10 -3.5
v 2.5 5 4.5
v 2.5 5 2.5
v 2.5 6 3.5
v 2.5 6 2.5
v 2.5 8 4.5
v 2.5 8 3.5
v 2.5 8 2.5
v 2.5 9 3.5
v 2.5 9 2.5
v 2.5 9 0.5
v 2.5 9 -1.5
v 2.5 10 0.5
v 2.5 10 -1.5
v 3.5 0 -0.5
v 3.5 0 -1.5
v 3.5 1 2.5
v 3.5 1 1.5
v 3.5 1 -0.5
v 3.5 1 -1.5
v 3.5 2 2.5
v 3.5 2 1.5
v 3.5 2 -0.5
v 3.5 2 -1.5
v 3.5 5 2.5
v 3.5 5 1.5
v 3.5 5 -0.5
v 3.5 5 -3.5
v 3.5 6 3.5
v 3.5 6 2.5
v 3.5 6 1.5
v 3.5 6 0.5
v 3.5 7 1.5
v 3.5 7 0.5
v 3.5 8 3.5
v 3.5 8 2.5
v 3.5 9 2.5
v 3.5 9 -3.5
v 4.5 0 3.5
v 4.5 0 1.5
v 4.5 1 3.5
v 4.5 1 1.5
v 4.5 2 1.5
v 4.5 2 -0.5
v 4.5 5 1.5
v 4.5 5 -0.5
v 5.5 6 4.5
v 5.5 6 0.5
v 5.5 7 4.5
v 5.5 7 3.5
v 5.5 7 2.5
v 5.5 7 0.5
v 5.5 8 3.5
v 5.5 8 2.5
v -5.5 6 4.5
v -5.5 7 4.5
v -4.5 6 4.5
v -4.5 7 4.5
v -2.5 5 4.5
v -2.5 8 4.5
v -1.5 6 4.5
v -1.5 8 4.5
v -1.5 9 4.5
v -0.5 5 4.5
v -0.5 6 4.5
v -0.5 7 4.5
v 0.5 5 4.5
v 0.5 6 4.5
v 0.5 7 4.5
v 1.5 6 4.5
v 1.5 8 4.5
v 1.5 9 4.5
v 2.5 5 4.5
v 2.5 8 4.5
v 4.5 6 4.5
v 4.5 7 4.5
v 5.5 6 4.5
v 5.5 7 4.5
v -5.5 7 3.5
v -5.5 8 3.5
v -4.5 0 3.5
v -4.5 1 3.5
v -4.5 7 3.5
v -4.5 8 3.5
v -3.5 6 3.5
v -3.5 8 3.5
v -2.5 6 3.5
v -2.5 8 3.5
v -2.5 9 3.5
v -1.5 0 3.5
v -1.5 1 3.5
v -1.5 8 3.5
v -1.5 9 3.5
v -0.5 5 3.5
v -0.5 6 3.5
v 0.5 5 3.5
v 0.5 6 3.5
v 1.5 0 3.5
v 1.5 1 3.5
v 1.5 8 3.5
v 1.5 9 3.5
v 2.5 6 3.5
v 2.5 8 3.5
v 2.5 9 3.5
v 3.5 6 3.5
v 3.5 8 3.5
v 4.5 0 3.5
v 4.5 1 3.5
v 4.5 7 3.5
v 4.5 8 3.5
v 5.5 7 3.5
v 5.5 8 3.5
v -3.5 1 2.5
v -3.5 2 2.5
v -3.5 5 2.5
v -3.5 6 2.5
v -3.5 8 2.5
v -3.5 9 2.5
v -2.5 1 2.5
v -2.5 2 2.5
v -2.5 5 2.5
v -2.5 6 2.5
v -2.5 8 2.5
v -2.5 9 2.5
v -1.5 9 2.5
v -1.5 10 2.5
v 1.5 9 2.5
v 1.5 10 2.5
v 2.5 1 2.5
v 2.5 2 2.5
v 2.5 5 2.5
v 2.5 6 2.5
v 2.5 8 2.5
v 2.5 9 2.5
v 3.5 1 2.5
v 3.5 2 2.5
v 3.5 5 2.5
v 3.5 6 2.5
v 3.5 8 2.5
v 3.5 9 2.5
v -4.5 2 1.5
v -4.5 5 1.5
v -4.5 6 1.5
v -4.5 7 1.5
v -3.5 2 1.5
v -3.5 3 1.5
v -3.5 5 1.5
v -3.5 6 1.5
v -3.5 7 1.5
v -2.5 2 1.5
v -2.5 3 1.5
v -1.5 2 1.5
v -1.5 5 1.5
v 1.5 2 1.5
v 1.5 5 1.5
v 2.5 2 1.5
v 2.5 3 1.5
v 3.5 2 1.5
v 3.5 3 1.5
v 3.5 5 1.5
v 3.5 6 1.5
v 3.5 7 1.5
v 4.5 2 1.5
v 4.5 5 1.5
v 4.5 6 1.5
v 4.5 7 1.5
v -2.5 9 0.5
v -2.5 10 0.5
v -1.5 9 0.5
v -1.5 10 0.5
v 1.5 9 0.5
v 1.5 10 0.5
v 2.5 9 0.5
v 2.5 10 0.5
v -3.5 0 -0.5
v -3.5 1 -0.5
v -2.5 0 -0.5
v -2.5 1 -0.5
v 2.5 0 -0.5
v 2.5 1 -0.5
v 3.5 0 -0.5
v 3.5 1 -0.5
v -5.5 7 2.5
v -5.5 8 2.5
v -4.5 7 2.5
v -4.5 8 2.5
v 4.5 7 2.5
v 4.5 8 2.5
v 5.5 7 2.5
v 5.5 8 2.5
v -4.5 0 1.5
v -4.5 1 1.5
v -3.5 1 1.5
v -2.5 1 1.5
v -1.5 0 1.5
v -1.5 1 1.5
v 1.5 0 1.5
v 1.5 1 1.5
v 2.5 1 1.5
v 3.5 1 1.5
v 4.5 0 1.5
v 4.5 1 1.5
v -5.5 6 0.5
v -5.5 7 0.5
v -3.5 6 0.5
v -3.5 7 0.5
v 3.5 6 0.5
v 3.5 7 0.5
v 5.5 6 0.5
v 5.5 7 0.5
v -4.5 2 -0.5
v -4.5 5 -0.5
v -3.5 2 -0.5
v -3.5 3 -0.5
v -3.5 5 -0.5
v -2.5 2 -0.5
v -2.5 3 -0.5
v -1.5 2 -0.5
v -1.5 5 -0.5
v 1.5 2 -0.5
v 1.5 5 -0.5
v 2.5 2 -0.5
v 2.5 3 -0.5
v 3.5 2 -0.5
v 3.5 3 -0.5
v 3.5 5 -0.5
v 4.5 2 -0.5
v 4.5 5 -0.5
v -3.5 0 -1.5
v -3.5 1 -1.5
v -3.5 2 -1.5
v -2.5 0 -1.5
v -2.5 1 -1.5
v -2.5 2 -1.5
v -2.5 9 -1.5
v -2.5 10 -1.5
v -1.5 9 -1.5
v -1.5 10 -1.5
v 1.5 9 -1.5
v 1.5 10 -1.5
v 2.5 0 -1.5
v 2.5 1 -1.5
v 2.5 2 -1.5
v 2.5 9 -1.5
v 2.5 10 -1.5
v 3.5 0 -1.5
v 3.5 1 -1.5
v 3.5 2 -1.5
v -3.5 5 -3.5
v -3.5 9 -3.5
v -1.5 7 -3.5
v -1.5 9 -3.5
v -1.5 10 -3.5
v 1.5 7 -3.5
v 1.5 9 -3.5
v 1.5 10 -3.5
v 3.5 5 -3.5
v 3.5 9 -3.5
v -1.5 7 -4.5
v -1.5 9 -4.5
v 1.5 7 -4.5
v 1.5 9 -4.5
v -4.5 0 3.5
v -1.5 0 3.5
v 1.5 0 3.5
v 4.5 0 3.5
v -4.5 0 2.5
v -1.5 0 2.5
v -4.5 0 1.5
v -1.5 0 1.5
v 1.5 0 1.5
v 4.5 0 1.5
v -3.5 0 -0.5
v -2.5 0 -0.5
v 2.5 0 -0.5
v 3.5 0 -0.5
v -3.5 0 -1.5
v -2.5 0 -1.5
v 2.5 0 -1.5
v 3.5 0 -1.5
v -3.5 1 1.5
v -2.5 1 1.5
v 2.5 1 1.5
v 3.5 1 1.5
v -3.5 1 -0.5
v -2.5 1 -0.5
v 2.5 1 -0.5
v 3.5 1 -0.5
v -4.5 2 1.5
v -3.5 2 1.5
v -2.5 2 1.5
v -1.5 2 1.5
v 1.5 2 1.5
v 2.5 2 1.5
v 3.5 2 1.5
v 4.5 2 1.5
v -4.5 2 -0.5
v -3.5 2 -0.5
v -2.5 2 -0.5
v -1.5 2 -0.5
v 1.5 2 -0.5
v 2.5 2 -0.5
v 3.5 2 -0.5
v 4.5 2 -0.5
v -2.5 5 4.5
v -0.5 5 4.5
v 0.5 5 4.5
v 2.5 5 4.5
v -0.5 5 3.5
v 0.5 5 3.5
v -3.5 5 2.5
v -2.5 5 2.5
v 2.5 5 2.5
v 3.5 5 2.5
v -3.5 5 1.5
v -1.5 5 1.5
v 1.5 5 1.5
v 3.5 5 1.5
v -3.5 5 -0.5
v -1.5 5 -0.5
v 1.5 5 -0.5
v 3.5 5 -0.5
v -3.5 5 -3.5
v 3.5 5 -3.5
v -5.5 6 4.5
v -4.5 6 4.5
v -0.5 6 4.5
v 0.5 6 4.5
v 4.5 6 4.5
v 5.5 6 4.5
v -3.5 6 3.5
v -2.5 6 3.5
v -0.5 6 3.5
v 0.5 6 3.5
v 2.5 6 3.5
v 3.5 6 3.5
v -3.5 6 2.5
v -2.5 6 2.5
v 2.5 6 2.5
v 3.5 6 2.5
v -4.5 6 1.5
v -3.5 6 1.5
v 3.5 6 1.5
v 4.5 6 1.5
v -5.5 6 0.5
v -3.5 6 0.5
v 3.5 6 0.5
v 5.5 6 0.5
v -1.5 7 -3.5
v 1.5 7 -3.5
v -1.5 7 -4.5
v 1.5 7 -4.5
v -4.5 1 3.5
v -1.5 1 3.5
v 1.5 1 3.5
v 4.5 1 3.5
v -4.5 1 2.5
v -3.5 1 2.5
v -2.5 1 2.5
v -1.5 1 2.5
v 2.5 1 2.5
v 3.5 1 2.5
v -4.5 1 1.5
v -3.5 1 1.5
v -2.5 1 1.5
v -1.5 1 1.5
v 1.5 1 1.5
v 2.5 1 1.5
v 3.5 1 1.5
v 4.5 1 1.5
v -3.5 2 2.5
v -2.5 2 2.5
v 2.5 2 2.5
v 3.5 2 2.5
v -3.5 2 1.5
v -2.5 2 1.5
v 2.5 2 1.5
v 3.5 2 1.5
v -3.5 2 -0.5
v -2.5 2 -0.5
v 2.5 2 -0.5
v 3.5 2 -0.5
v -3.5 2 -1.5
v -2.5 2 -1.5
v 2.5 2 -1.5
v 3.5 2 -1.5
v -4.5 5 1.5
v -3.5 5 1.5
v 3.5 5 1.5
v 4.5 5 1.5
v -4.5 5 -0.5
v -3.5 5 -0.5
v 3.5 5 -0.5
v 4.5 5 -0.5
v -5.5 7 4.5
v -4.5 7 4.5
v 4.5 7 4.5
v 5.5 7 4.5
v -5.5 7 3.5
v -4.5 7 3.5
v 4.5 7 3.5
v 5.5 7 3.5
v -5.5 7 2.5
v -4.5 7 2.5
v 4.5 7 2.5
v 5.5 7 2.5
v -4.5 7 1.5
v -3.5 7 1.5
v 3.5 7 1.5
v 4.5 7 1.5
v -5.5 7 0.5
v -3.5 7 0.5
v 3.5 7 0.5
v 5.5 7 0.5
v -2.5 8 4.5
v -1.5 8 4.5
v 1.5 8 4.5
v 2.5 8 4.5
v -5.5 8 3.5
v -4.5 8 3.5
v -3.5 8 3.5
v -2.5 8 3.5
v -1.5 8 3.5
v 1.5 8 3.5
v 2.5 8 3.5
v 3.5 8 3.5
v 4.5 8 3.5
v 5.5 8 3.5
v -5.5 8 2.5
v -4.5 8 2.5
v -3.5 8 2.5
v -2.5 8 2.5
v 2.5 8 2.5
v 3.5 8 2.5
v 4.5 8 2.5
v 5.5 8 2.5
v -1.5 9 4.5
v 1.5 9 4.5
v -2.5 9 3.5
v -1.5 9 3.5
v 1.5 9 3.5
v 2.5 9 3.5
v -3.5 9 2.5
v -2.5 9 2.5
v -1.5 9 2.5
v 1.5 9 2.5
v 2.5 9 2.5
v 3.5 9 2.5
v -2.5 9 0.5
v -1.5 9 0.5
v 1.5 9 0.5
v 2.5 9 0.5
v -2.5 9 -1.5
v -1.5 9 -1.5
v 1.5 9 -1.5
v 2.5 9 -1.5
v -1.5 9 -2.5
v 1.5 9 -2.5
v -3.5 9 -3.5
v -1.5 9 -3.5
v 1.5 9 -3.5
v 3.5 9 -3.5
v -1.5 9 -4.5
v 1.5 9 -4.5
v -1.5 10 2.5
v 1.5 10 2.5
v -2.5 10 0.5
v -1.5 10 0.5
v 1.5 10 0.5
v 2.5 10 0.5
v -2.5 10 -1.5
v -1.5 10 -1.5
v 1.5 10 -1.5
v 2.5 10 -1.5
v -1.5 10 -2.5
v 1.5 10 -2.5
v -1.5 10 -3.5
v 1.5 10 -3.5

# faces
f 3/5/1 2/5/1 1/5/1
f 4/5/1 2/5/1 3/5/1
f 5/5/1 2/5/1 4/5/1
f 6/5/1 2/5/1 5/5/1
f 7/5/1 5/5/1 4/5/1
f 8/5/1 5/5/1 7/5/1
f 12/4/1 10/4/1 9/4/1
f 13/3/1 11/3/1 10/3/1
f 13/4/1 10/4/1 12/4/1
f 14/3/1 11/3/1 13/3/1
f 17/3/1 16/3/1 15/3/1
f 18/3/1 16/3/1 17/3/1
f 23/3/1 20/3/1 19/3/1
f 24/3/1 20/3/1 23/3/1
f 25/7/1 22/7/1 21/7/1
f 25/7/1 23/7/1 22/7/1
f 25/7/1 24/7/1 23/7/1
f 26/7/1 24/7/1 25/7/1
f 27/7/1 24/7/1 26/7/1
f 28/7/1 24/7/1 27/7/1
f 34/3/1 31/3/1 30/3/1
f 34/3/1 32/3/1 31/3/1
f 34/3/1 30/3/1 29/3/1
f 35/3/1 32/3/1 34/3/1
f 36/3/1 32/3/1 35/3/1
f 37/3/1 34/3/1 33/3/1
f 37/3/1 35/3/1 34/3/1
f 38/3/1 32/3/1 36/3/1
f 39/3/1 37/3/1 33/3/1
f 39/3/1 38/3/1 37/3/1
f 40/3/1 38/3/1 39/3/1
f 41/3/1 38/3/1 40/3/1
f 42/3/1 32/3/1 38/3/1
f 42/3/1 38/3/1 41/3/1
f 45/3/1 44/3/1 43/3/1
f 46/3/1 44/3/1 45/3/1
f 47/3/1 45/3/1 43/3/1
f 48/3/1 45/3/1 47/3/1
f 50/3/1 49/3/1 48/3/1
f 51/3/1 49/3/1 50/3/1
f 54/1/1 53/1/1 52/1/1
f 55/1/1 53/1/1 54/1/1
f 60/1/1 59/1/1 58/1/1
f 61/1/1 59/1/1 60/1/1
f 66/6/1 57/6/1 56/6/1
f 67/6/1 57/6/1 66/6/1
f 68/1/1 63/1/1 62/1/1
f 69/1/1 63/1/1 68/1/1
f 70/1/1 65/1/1 64/1/1
f 71/6/1 66/6/1 65/6/1
f 71/1/1 65/1/1 70/1/1
f 72/6/1 66/6/1 71/6/1
f 75/3/1 74/3/1 73/3/1
f 76/3/1 74/3/1 75/3/1
f 79/4/1 78/4/1 77/4/1
f 80/4/1 78/4/1 79/4/1
f 83/3/1 82/3/1 81/3/1
f 84/3/1 82/3/1 83/3/1
f 89/4/1 86/4/1 85/4/1
f 90/4/1 86/4/1 89/4/1
f 91/2/1 88/2/1 87/2/1
f 91/2/1 89/2/1 88/2/1
f 91/2/1 90/2/1 89/2/1
f 92/2/1 90/2/1 91/2/1
f 93/2/1 90/2/1 92/2/1
f 94/2/1 90/2/1 93/2/1
f 97/5/1 96/5/1 95/5/1
f 98/5/1 96/5/1 97/5/1
f 99/5/1 96/5/1 98/5/1
f 100/5/1 96/5/1 99/5/1
f 101/5/1 99/5/1 98/5/1
f 102/5/1 99/5/1 101/5/1
f 103/5/2 104/5/2 105/5/2
f 105/5/2 104/5/2 106/5/2
f 106/5/2 104/5/2 107/5/2
f 107/5/2 104/5/2 108/5/2
f 106/5/2 107/5/2 109/5/2
f 109/5/2 107/5/2 110/5/2
f 111/3/2 112/3/2 115/3/2
f 115/3/2 112/3/2 116/3/2
f 113/7/2 114/7/2 117/7/2
f 114/7/2 115/7/2 117/7/2
f 115/7/2 116/7/2 117/7/2
f 117/7/2 116/7/2 118/7/2
f 118/7/2 116/7/2 119/7/2
f 119/7/2 116/7/2 120/7/2
f 121/4/2 122/4/2 124/4/2
f 122/3/2 123/3/2 125/3/2
f 124/4/2 122/4/2 125/4/2
f 125/3/2 123/3/2 126/3/2
f 127/3/2 128/3/2 129/3/2
f 129/3/2 128/3/2 130/3/2
f 131/3/2 132/3/2 133/3/2
f 133/3/2 132/3/2 134/3/2
f 137/1/2 138/1/2 139/1/2
f 139/1/2 138/1/2 140/1/2
f 135/6/2 136/6/2 145/6/2
f 145/6/2 136/6/2 146/6/2
f 141/1/2 142/1/2 147/1/2
f 147/1/2 142/1/2 148/1/2
f 143/1/2 144/1/2 149/1/2
f 144/6/2 145/6/2 150/6/2
f 149/1/2 144/1/2 150/1/2
f 150/6/2 145/6/2 151/6/2
f 152/3/2 153/3/2 154/3/2
f 154/3/2 153/3/2 155/3/2
f 152/3/2 154/3/2 156/3/2
f 156/3/2 154/3/2 157/3/2
f 157/3/2 158/3/2 159/3/2
f 159/3/2 158/3/2 160/3/2
f 161/1/2 162/1/2 163/1/2
f 163/1/2 162/1/2 164/1/2
f 165/4/2 166/4/2 169/4/2
f 169/4/2 166/4/2 170/4/2
f 167/2/2 168/2/2 171/2/2
f 168/2/2 169/2/2 171/2/2
f 169/2/2 170/2/2 171/2/2
f 171/2/2 170/2/2 172/2/2
f 172/2/2 170/2/2 173/2/2
f 173/2/2 170/2/2 174/2/2
f 176/3/2 177/3/2 180/3/2
f 177/3/2 178/3/2 180/3/2
f 175/3/2 176/3/2 180/3/2
f 180/3/2 178/3/2 181/3/2
f 181/3/2 178/3/2 182/3/2
f 179/3/2 180/3/2 183/3/2
f 180/3/2 181/3/2 183/3/2
f 182/3/2 178/3/2 184/3/2
f 179/3/2 183/3/2 185/3/2
f 183/3/2 184/3/2 185/3/2
f 185/3/2 184/3/2 186/3/2
f 186/3/2 184/3/2 187/3/2
f 184/3/2 178/3/2 188/3/2
f 187/3/2 184/3/2 188/3/2
f 189/4/2 190/4/2 191/4/2
f 191/4/2 190/4/2 192/4/2
f 193/3/2 194/3/2 195/3/2
f 195/3/2 194/3/2 196/3/2
f 197/5/2 198/5/2 199/5/2
f 199/5/2 198/5/2 200/5/2
f 200/5/2 198/5/2 201/5/2
f 201/5/2 198/5/2 202/5/2
f 200/5/2 201/5/2 203/5/2
f 203/5/2 201/5/2 204/5/2
f 207/5/3 206/5/3 205/5/3
f 208/5/3 206/5/3 207/5/3
f 211/3/3 210/3/3 209/3/3
f 212/3/3 210/3/3 211/3/3
f 214/3/3 211/3/3 209/3/3
f 215/1/3 213/1/3 212/1/3
f 215/3/3 211/3/3 214/3/3
f 215/1/3 212/1/3 211/1/3
f 216/1/3 213/1/3 215/1/3
f 218/3/3 216/3/3 215/3/3
f 219/1/3 213/1/3 216/1/3
f 219/3/3 216/3/3 218/3/3
f 220/3/3 218/3/3 217/3/3
f 220/1/3 219/1/3 218/1/3
f 221/1/3 213/1/3 219/1/3
f 221/1/3 219/1/3 220/1/3
f 222/1/3 213/1/3 221/1/3
f 223/3/3 220/3/3 217/3/3
f 223/3/3 221/3/3 220/3/3
f 224/3/3 221/3/3 223/3/3
f 227/5/3 226/5/3 225/5/3
f 228/5/3 226/5/3 227/5/3
f 233/5/3 230/5/3 229/5/3
f 234/5/3 230/5/3 233/5/3
f 237/3/3 236/3/3 235/3/3
f 238/3/3 236/3/3 237/3/3
f 240/4/3 232/4/3 231/4/3
f 241/4/3 232/4/3 240/4/3
f 242/3/3 239/3/3 238/3/3
f 243/3/3 239/3/3 242/3/3
f 246/3/3 245/3/3 244/3/3
f 247/3/3 245/3/3 246/3/3
f 253/3/3 251/3/3 250/3/3
f 254/3/3 251/3/3 253/3/3
f 255/3/3 253/3/3 252/3/3
f 256/3/3 253/3/3 255/3/3
f 257/4/3 249/4/3 248/4/3
f 258/4/3 249/4/3 257/4/3
f 261/5/3 260/5/3 259/5/3
f 262/5/3 260/5/3 261/5/3
f 269/7/3 264/7/3 263/7/3
f 270/7/3 264/7/3 269/7/3
f 271/3/3 266/3/3 265/3/3
f 272/3/3 266/3/3 271/3/3
f 273/3/3 268/3/3 267/3/3
f 274/3/3 268/3/3 273/3/3
f 277/1/3 276/1/3 275/1/3
f 278/1/3 276/1/3 277/1/3
f 285/2/3 280/2/3 279/2/3
f 286/2/3 280/2/3 285/2/3
f 287/3/3 282/3/3 281/3/3
f 288/3/3 282/3/3 287/3/3
f 289/3/3 284/3/3 283/3/3
f 290/3/3 284/3/3 289/3/3
f 295/3/3 292/3/3 291/3/3
f 296/3/3 292/3/3 295/3/3
f 297/3/3 292/3/3 296/3/3
f 298/5/3 294/5/3 293/5/3
f 299/5/3 294/5/3 298/5/3
f 300/7/3 296/7/3 295/7/3
f 301/3/3 297/3/3 296/3/3
f 301/7/3 296/7/3 300/7/3
f 302/3/3 301/3/3 300/3/3
f 303/3/3 297/3/3 301/3/3
f 303/3/3 301/3/3 302/3/3
f 306/3/3 305/3/3 304/3/3
f 307/3/3 305/3/3 306/3/3
f 308/2/3 307/2/3 306/2/3
f 309/3/3 305/3/3 307/3/3
f 309/2/3 307/2/3 308/2/3
f 310/3/3 305/3/3 309/3/3
f 313/3/3 310/3/3 309/3/3
f 313/3/3 309/3/3 308/3/3
f 314/3/3 310/3/3 313/3/3
f 315/5/3 312/5/3 311/5/3
f 316/5/3 312/5/3 315/5/3
f 319/1/3 318/1/3 317/1/3
f 320/1/3 318/1/3 319/1/3
f 323/1/3 322/1/3 321/1/3
f 324/1/3 322/1/3 323/1/3
f 327/3/3 326/3/3 325/3/3
f 328/3/3 326/3/3 327/3/3
f 331/4/3 330/4/3 329/4/3
f 332/4/3 330/4/3 331/4/3
f 333/5/4 334/5/4 335/5/4
f 335/5/4 334/5/4 336/5/4
f 337/5/4 338/5/4 339/5/4
f 339/5/4 338/5/4 340/5/4
f 341/3/4 342/3/4 343/3/4
f 341/3/4 343/3/4 344/3/4
f 341/3/4 344/3/4 345/3/4
f 345/3/4 344/3/4 346/3/4
f 347/4/4 348/4/4 349/4/4
f 347/4/4 349/4/4 350/4/4
f 347/4/4 350/4/4 351/4/4
f 351/4/4 350/4/4 352/4/4
f 353/5/4 354/5/4 355/5/4
f 355/5/4 354/5/4 356/5/4
f 357/5/4 358/5/4 359/5/4
f 359/5/4 358/5/4 360/5/4
f 361/3/4 362/3/4 363/3/4
f 363/3/4 362/3/4 364/3/4
f 364/3/4 362/3/4 365/3/4
f 363/7/4 364/7/4 366/7/4
f 364/3/4 365/3/4 367/3/4
f 366/7/4 364/7/4 367/7/4
f 366/3/4 367/3/4 368/3/4
f 367/3/4 365/3/4 369/3/4
f 368/3/4 367/3/4 369/3/4
f 370/3/4 371/3/4 372/3/4
f 372/3/4 371/3/4 373/3/4
f 372/2/4 373/2/4 374/2/4
f 373/3/4 371/3/4 375/3/4
f 374/2/4 373/2/4 375/2/4
f 375/3/4 371/3/4 376/3/4
f 374/3/4 375/3/4 377/3/4
f 375/3/4 376/3/4 377/3/4
f 377/3/4 376/3/4 378/3/4
f 379/3/4 380/3/4 382/3/4
f 380/7/4 381/7/4 383/7/4
f 382/3/4 380/3/4 383/3/4
f 383/7/4 381/7/4 384/7/4
f 385/1/4 386/1/4 387/1/4
f 387/1/4 386/1/4 388/1/4
f 389/1/4 390/1/4 394/1/4
f 394/1/4 390/1/4 395/1/4
f 391/4/4 392/4/4 396/4/4
f 392/2/4 393/2/4 397/2/4
f 396/4/4 392/4/4 397/4/4
f 397/2/4 393/2/4 398/2/4
f 399/3/4 400/3/4 401/3/4
f 401/3/4 400/3/4 402/3/4
f 399/3/4 401/3/4 404/3/4
f 402/6/4 403/6/4 405/6/4
f 405/6/4 403/6/4 406/6/4
f 399/3/4 404/3/4 407/3/4
f 404/3/4 405/3/4 407/3/4
f 407/3/4 405/3/4 408/3/4
f 409/6/4 410/6/4 411/6/4
f 411/6/4 410/6/4 412/6/4
f 417/4/5 414/4/5 413/4/5
f 418/4/5 414/4/5 417/4/5
f 419/3/5 418/3/5 417/3/5
f 420/3/5 418/3/5 419/3/5
f 421/4/5 416/4/5 415/4/5
f 422/4/5 416/4/5 421/4/5
f 427/3/5 424/3/5 423/3/5
f 428/3/5 424/3/5 427/3/5
f 429/4/5 426/4/5 425/4/5
f 430/4/5 426/4/5 429/4/5
f 435/7/5 432/7/5 431/7/5
f 436/7/5 432/7/5 435/7/5
f 437/2/5 434/2/5 433/2/5
f 438/2/5 434/2/5 437/2/5
f 447/3/5 440/3/5 439/3/5
f 448/3/5 440/3/5 447/3/5
f 449/3/5 442/3/5 441/3/5
f 450/3/5 442/3/5 449/3/5
f 451/3/5 444/3/5 443/3/5
f 452/3/5 444/3/5 451/3/5
f 453/3/5 446/3/5 445/3/5
f 454/3/5 446/3/5 453/3/5
f 459/3/5 456/3/5 455/3/5
f 460/3/5 458/3/5 457/3/5
f 462/3/5 459/3/5 455/3/5
f 462/3/5 460/3/5 459/3/5
f 463/3/5 458/3/5 460/3/5
f 463/3/5 460/3/5 462/3/5
f 465/3/5 462/3/5 461/3/5
f 465/3/5 464/3/5 463/3/5
f 465/3/5 463/3/5 462/3/5
f 466/3/5 464/3/5 465/3/5
f 467/3/5 464/3/5 466/3/5
f 468/3/5 464/3/5 467/3/5
f 470/3/5 467/3/5 466/3/5
f 471/3/5 467/3/5 470/3/5
f 473/3/5 470/3/5 469/3/5
f 473/3/5 472/3/5 471/3/5
f 473/3/5 471/3/5 470/3/5
f 474/3/5 472/3/5 473/3/5
f 483/3/5 478/3/5 477/3/5
f 484/3/5 478/3/5 483/3/5
f 487/3/5 482/3/5 481/3/5
f 488/3/5 482/3/5 487/3/5
f 489/3/5 486/3/5 485/3/5
f 490/3/5 486/3/5 489/3/5
f 491/5/5 476/5/5 475/5/5
f 494/5/5 480/5/5 479/5/5
f 495/5/5 492/5/5 491/5/5
f 495/5/5 491/5/5 475/5/5
f 496/5/5 492/5/5 495/5/5
f 497/5/5 494/5/5 493/5/5
f 498/5/5 480/5/5 494/5/5
f 498/5/5 494/5/5 497/5/5
f 501/6/5 500/6/5 499/6/5
f 502/6/5 500/6/5 501/6/5
f 503/4/6 504/4/6 507/4/6
f 507/4/6 504/4/6 508/4/6
f 508/4/6 504/4/6 509/4/6
f 509/4/6 504/4/6 510/4/6
f 505/4/6 506/4/6 511/4/6
f 511/4/6 506/4/6 512/4/6
f 507/3/6 508/3/6 513/3/6
f 513/3/6 508/3/6 514/3/6
f 509/3/6 510/3/6 515/3/6
f 515/3/6 510/3/6 516/3/6
f 505/4/6 511/4/6 517/4/6
f 517/4/6 511/4/6 518/4/6
f 512/4/6 506/4/6 519/4/6
f 519/4/6 506/4/6 520/4/6
f 521/7/6 522/7/6 525/7/6
f 525/7/6 522/7/6 526/7/6
f 523/2/6 524/2/6 527/2/6
f 527/2/6 524/2/6 528/2/6
f 529/7/6 530/7/6 533/7/6
f 533/7/6 530/7/6 534/7/6
f 531/2/6 532/2/6 535/2/6
f 535/2/6 532/2/6 536/2/6
f 537/3/6 538/3/6 541/3/6
f 541/3/6 538/3/6 542/3/6
f 539/3/6 540/3/6 543/3/6
f 543/3/6 540/3/6 544/3/6
f 545/5/6 546/5/6 549/5/6
f 549/5/6 546/5/6 550/5/6
f 547/5/6 548/5/6 551/5/6
f 551/5/6 548/5/6 552/5/6
f 553/5/6 554/5/6 557/5/6
f 555/5/6 556/5/6 560/5/6
f 557/5/6 558/5/6 561/5/6
f 553/5/6 557/5/6 561/5/6
f 561/5/6 558/5/6 562/5/6
f 559/5/6 560/5/6 563/5/6
f 560/5/6 556/5/6 564/5/6
f 563/5/6 560/5/6 564/5/6
f 565/3/6 566/3/6 572/3/6
f 572/3/6 566/3/6 573/3/6
f 567/3/6 568/3/6 574/3/6
f 574/3/6 568/3/6 575/3/6
f 569/5/6 570/5/6 579/5/6
f 579/5/6 570/5/6 580/5/6
f 571/3/6 572/3/6 581/3/6
f 581/3/6 572/3/6 582/3/6
f 575/3/6 576/3/6 583/3/6
f 583/3/6 576/3/6 584/3/6
f 577/5/6 578/5/6 585/5/6
f 585/5/6 578/5/6 586/5/6
f 587/1/6 588/1/6 590/1/6
f 590/1/6 588/1/6 591/1/6
f 589/3/6 590/3/6 594/3/6
f 590/1/6 591/1/6 595/1/6
f 594/3/6 590/3/6 595/3/6
f 591/3/6 592/3/6 596/3/6
f 595/1/6 591/1/6 596/1/6
f 596/3/6 592/3/6 597/3/6
f 594/3/6 595/3/6 599/3/6
f 593/3/6 594/3/6 599/3/6
f 599/3/6 595/3/6 600/3/6
f 597/3/6 598/3/6 601/3/6
f 596/3/6 597/3/6 601/3/6
f 601/3/6 598/3/6 602/3/6
f 593/3/6 599/3/6 603/3/6
f 602/3/6 598/3/6 606/3/6
f 603/3/6 604/3/6 607/3/6
f 605/3/6 606/3/6 608/3/6
f 603/3/6 607/3/6 609/3/6
f 593/3/6 603/3/6 609/3/6
f 609/3/6 607/3/6 610/3/6
f 608/3/6 606/3/6 611/3/6
f 606/3/6 598/3/6 612/3/6
f 611/3/6 606/3/6 612/3/6
f 610/6/6 611/6/6 613/6/6
f 613/6/6 611/6/6 614/6/6
f 615/1/6 616/1/6 618/1/6
f 618/1/6 616/1/6 619/1/6
f 617/1/6 618/1/6 621/1/6
f 619/1/6 620/1/6 621/1/6
f 618/1/6 619/1/6 621/1/6
f 621/1/6 620/1/6 622/1/6
f 622/1/6 620/1/6 623/1/6
f 623/1/6 620/1/6 624/1/6
f 622/1/6 623/1/6 625/1/6
f 625/1/6 623/1/6 626/1/6
f 625/6/6 626/6/6 627/6/6
f 627/6/6 626/6/6 628/6/6
